<svg width="252" height="46" viewBox="0 0 252 46" fill="none" xmlns="http://www.w3.org/2000/svg">
<path fill-rule="evenodd" clip-rule="evenodd" d="M20.64 0L20.681 0.0190121L20.6888 0.0154322L20.693 0.0245507L41.3288 9.58785L39.6763 35.1933L20.6821 45.9701L20.6874 45.9732L20.6722 46L1.65246 35.2088L0 9.60328L20.6443 0.0360214L20.627 0.0280034L20.64 0ZM13.8052 23.9647C13.3378 24.3423 12.9745 24.7657 12.7155 25.2349L10.3249 29.5658C10.0659 30.035 9.89618 30.577 9.81577 31.1919C9.73535 31.8067 9.72402 32.4244 9.78176 33.0448L9.79671 33.0178C9.88058 33.6762 10.1325 34.2862 10.5524 34.8476C10.9544 35.3991 11.5162 35.874 12.238 36.2725L19.9254 40.5159C21.4232 41.3427 22.7839 41.4581 24.0075 40.8622C24.6274 40.5922 25.153 40.2585 25.5844 39.8609C26.0158 39.4633 26.3609 39.0299 26.6199 38.5607L29.0106 34.2298C29.5385 33.2734 29.7236 32.1277 29.5658 30.7928C29.4 29.4299 28.5772 28.34 27.0974 27.5232L19.4101 23.2797C18.6882 22.8813 17.9869 22.659 17.3061 22.6128C16.6072 22.5566 15.9569 22.6685 15.355 22.9484L15.37 22.9213C14.8042 23.2212 14.2826 23.569 13.8052 23.9647ZM26.4058 31.5912C26.6353 32.0711 26.5658 32.6449 26.1972 33.3125L24.3445 36.669C23.9759 37.3367 23.5225 37.7103 22.9841 37.7898C22.4557 37.8513 21.975 37.7625 21.5419 37.5235L13.9087 33.3099C13.4576 33.0609 13.1262 32.7014 12.9148 32.2315C12.6952 31.7336 12.7697 31.1508 13.1382 30.4831L14.991 27.1267C15.3596 26.459 15.808 26.0944 16.3364 26.0329C16.8567 25.9434 17.3424 26.0231 17.7935 26.2722L25.4268 30.4857C25.8599 30.7248 26.1862 31.0933 26.4058 31.5912ZM34.484 24.6982C35.0717 23.6335 34.9324 22.8621 34.0663 22.384L16.4449 12.6569L20.7033 4.94249C21.1017 4.22067 20.8308 3.6238 19.8906 3.15187C18.9684 2.68991 18.328 2.78374 17.9694 3.43338L12.8892 12.6366C12.5206 13.3042 12.443 13.85 12.6564 14.2739C12.8517 14.6878 13.1569 15.0093 13.5719 15.2384L32.3031 25.578C33.1693 26.0562 33.8963 25.7629 34.484 24.6982ZM28.6377 10.5937C28.4187 10.308 28.1558 10.0805 27.849 9.91115C27.5423 9.74181 27.2187 9.64559 26.8783 9.62249C26.5478 9.58135 26.2236 9.61426 25.9055 9.72124C25.5794 9.8002 25.2875 9.94514 25.0298 10.1561C24.7541 10.357 24.5266 10.6199 24.3473 10.9447C24.0086 11.5583 23.9363 12.2011 24.1303 12.8733C24.3243 13.5454 24.7371 14.0558 25.3687 14.4045C26.0003 14.7531 26.6522 14.8304 27.3243 14.6364C27.9965 14.4424 28.5019 14.0386 28.8406 13.425C29.0199 13.1002 29.1301 12.7726 29.1713 12.4421C29.1944 12.1017 29.1614 11.7775 29.0725 11.4694C28.9936 11.1433 28.8486 10.8514 28.6377 10.5937Z" fill="url(#paint0_linear_36_48)"/>
<path d="M56.3705 34.4321C53.7161 34.4321 51.607 33.6914 50.0432 32.2099C48.4794 30.7078 47.6975 28.5473 47.6975 25.7283V20.6666C47.6975 17.8476 48.4794 15.6974 50.0432 14.2159C51.607 12.7138 53.7161 11.9628 56.3705 11.9628C59.0248 11.9628 61.1339 12.7138 62.6977 14.2159C64.282 15.6974 65.0742 17.8476 65.0742 20.6666V25.7283C65.0742 28.5473 64.282 30.7078 62.6977 32.2099C61.1339 33.6914 59.0248 34.4321 56.3705 34.4321ZM56.3705 31.4383C58.0783 31.4383 59.3952 30.9444 60.3211 29.9568C61.247 28.9485 61.71 27.5802 61.71 25.8518V20.5431C61.71 18.8147 61.247 17.4567 60.3211 16.469C59.3952 15.4608 58.0783 14.9566 56.3705 14.9566C54.7038 14.9566 53.3972 15.4608 52.4507 16.469C51.5042 17.4567 51.0309 18.8147 51.0309 20.5431V25.8518C51.0309 27.5802 51.5042 28.9485 52.4507 29.9568C53.3972 30.9444 54.7038 31.4383 56.3705 31.4383ZM73.187 34.4321C71.2528 34.4321 69.6479 34 68.3721 33.1358C67.0964 32.2716 66.3145 30.965 66.0264 29.216L68.9894 28.5061C69.154 29.3498 69.4318 30.0185 69.8228 30.5123C70.2137 31.0061 70.6973 31.3559 71.2734 31.5617C71.8701 31.7675 72.508 31.8704 73.187 31.8704C74.1952 31.8704 74.9668 31.6749 75.5018 31.2839C76.0574 30.893 76.3352 30.3889 76.3352 29.7716C76.3352 29.1543 76.078 28.7016 75.5635 28.4135C75.0491 28.1255 74.2878 27.8888 73.2796 27.7037L72.2302 27.5185C71.2014 27.3333 70.2652 27.0658 69.4215 26.716C68.5779 26.3662 67.9092 25.8827 67.4153 25.2654C66.9215 24.6481 66.6746 23.8559 66.6746 22.8888C66.6746 21.4485 67.2096 20.3373 68.2795 19.5554C69.3495 18.753 70.7693 18.3517 72.5388 18.3517C74.2467 18.3517 75.6459 18.7427 76.7364 19.5246C77.8475 20.2859 78.5677 21.325 78.8969 22.6419L75.9339 23.4752C75.7487 22.5493 75.3578 21.9011 74.7611 21.5308C74.1644 21.1398 73.4236 20.9443 72.5388 20.9443C71.6746 20.9443 70.9956 21.109 70.5018 21.4382C70.0079 21.7468 69.761 22.1892 69.761 22.7653C69.761 23.3826 69.9977 23.8353 70.4709 24.1234C70.9647 24.4114 71.6232 24.6275 72.4462 24.7715L73.5265 24.9567C74.617 25.1419 75.615 25.3991 76.5203 25.7283C77.4257 26.0576 78.1356 26.5308 78.65 27.1481C79.185 27.7654 79.4525 28.5884 79.4525 29.6173C79.4525 31.1399 78.8866 32.323 77.7549 33.1667C76.6232 34.0103 75.1006 34.4321 73.187 34.4321ZM81.0077 34V18.7838H84.1251V20.574H84.6189C84.907 20.039 85.3699 19.5657 86.0078 19.1542C86.6456 18.7427 87.5099 18.5369 88.6004 18.5369C89.7321 18.5369 90.6374 18.7735 91.3165 19.2468C92.0161 19.6995 92.5408 20.2859 92.8906 21.0061H93.3844C93.7342 20.3065 94.2383 19.7201 94.8967 19.2468C95.5758 18.7735 96.5326 18.5369 97.7671 18.5369C98.7548 18.5369 99.6293 18.7427 100.391 19.1542C101.152 19.5452 101.759 20.1419 102.212 20.9443C102.664 21.7262 102.891 22.7036 102.891 23.8765V34H99.7116V24.1234C99.7116 23.1974 99.4544 22.4876 98.94 21.9937C98.4462 21.4793 97.7363 21.2221 96.8103 21.2221C95.8227 21.2221 95.0305 21.5411 94.4338 22.1789C93.8371 22.8168 93.5387 23.7324 93.5387 24.9259V34H90.3597V24.1234C90.3597 23.1974 90.1025 22.4876 89.5881 21.9937C89.0942 21.4793 88.3843 21.2221 87.4584 21.2221C86.4708 21.2221 85.6786 21.5411 85.0819 22.1789C84.4851 22.8168 84.1868 23.7324 84.1868 24.9259V34H81.0077ZM105.218 34V12.3949H118.552V15.4196H108.552V21.6542H117.749V24.6789H108.552V34H105.218ZM124.209 34.4321C123.119 34.4321 122.141 34.2469 121.277 33.8765C120.434 33.5062 119.755 32.9609 119.24 32.2407C118.746 31.5206 118.499 30.6461 118.499 29.6173C118.499 28.5679 118.746 27.7037 119.24 27.0246C119.755 26.325 120.444 25.8003 121.308 25.4506C122.193 25.1008 123.191 24.9259 124.302 24.9259H128.932V23.9382C128.932 23.0534 128.664 22.3435 128.129 21.8085C127.594 21.2736 126.771 21.0061 125.66 21.0061C124.569 21.0061 123.736 21.2633 123.16 21.7777C122.584 22.2921 122.203 22.9608 122.018 23.7839L119.055 22.8271C119.302 22.004 119.693 21.2633 120.228 20.6048C120.783 19.9258 121.514 19.3805 122.419 18.969C123.324 18.5575 124.415 18.3517 125.691 18.3517C127.666 18.3517 129.22 18.8558 130.351 19.8641C131.483 20.8723 132.049 22.3024 132.049 24.1542V30.4197C132.049 31.037 132.337 31.3457 132.913 31.3457H134.209V34H131.833C131.113 34 130.526 33.8148 130.074 33.4444C129.621 33.0741 129.395 32.5699 129.395 31.9321V31.8395H128.932C128.767 32.1481 128.52 32.5082 128.191 32.9197C127.862 33.3313 127.378 33.6914 126.74 34C126.102 34.2881 125.259 34.4321 124.209 34.4321ZM124.672 31.8086C125.948 31.8086 126.977 31.4485 127.759 30.7284C128.541 29.9876 128.932 28.9794 128.932 27.7037V27.395H124.487C123.643 27.395 122.964 27.5802 122.45 27.9506C121.936 28.3004 121.678 28.8251 121.678 29.5247C121.678 30.2243 121.946 30.7798 122.481 31.1913C123.016 31.6029 123.746 31.8086 124.672 31.8086ZM135.14 34V18.7838H138.257V20.574H138.751C138.998 19.9361 139.389 19.4731 139.924 19.1851C140.479 18.8764 141.158 18.7221 141.961 18.7221H143.782V21.5925H141.837C140.809 21.5925 139.965 21.8806 139.307 22.4567C138.648 23.0123 138.319 23.8765 138.319 25.0493V34H135.14ZM144.915 34V18.7838H148.094V34H144.915ZM146.52 16.7159C145.903 16.7159 145.378 16.5204 144.946 16.1295C144.535 15.718 144.329 15.1933 144.329 14.5554C144.329 13.9175 144.535 13.4031 144.946 13.0122C145.378 12.6007 145.903 12.3949 146.52 12.3949C147.158 12.3949 147.683 12.6007 148.094 13.0122C148.506 13.4031 148.712 13.9175 148.712 14.5554C148.712 15.1933 148.506 15.718 148.094 16.1295C147.683 16.5204 147.158 16.7159 146.52 16.7159ZM156.948 34.4321C155.693 34.4321 154.53 34.1235 153.46 33.5062C152.39 32.8889 151.526 32.0041 150.868 30.8518C150.23 29.679 149.911 28.2695 149.911 26.6234V26.1604C149.911 24.5349 150.23 23.1357 150.868 21.9629C151.506 20.79 152.359 19.895 153.429 19.2777C154.499 18.6604 155.672 18.3517 156.948 18.3517C157.936 18.3517 158.759 18.4752 159.417 18.7221C160.096 18.969 160.652 19.288 161.084 19.6789C161.516 20.0493 161.845 20.4402 162.071 20.8517H162.565V12.3949H165.744V34H162.627V31.8395H162.133C161.742 32.4979 161.146 33.0946 160.343 33.6296C159.561 34.1646 158.429 34.4321 156.948 34.4321ZM157.843 31.6543C159.222 31.6543 160.353 31.2119 161.238 30.3271C162.144 29.4424 162.596 28.1769 162.596 26.5308V26.253C162.596 24.6275 162.154 23.3723 161.269 22.4876C160.384 21.6028 159.242 21.1604 157.843 21.1604C156.485 21.1604 155.353 21.6028 154.448 22.4876C153.563 23.3723 153.121 24.6275 153.121 26.253V26.5308C153.121 28.1769 153.563 29.4424 154.448 30.3271C155.353 31.2119 156.485 31.6543 157.843 31.6543ZM168.295 20.7283V18.9073H169.344C170.188 18.9073 170.609 18.4855 170.609 17.6418V16.6542H170.146C169.426 16.6542 168.83 16.4381 168.356 16.006C167.883 15.5739 167.646 15.0287 167.646 14.3702C167.646 13.65 167.883 13.0739 168.356 12.6418C168.83 12.1891 169.426 11.9628 170.146 11.9628C170.867 11.9628 171.453 12.1994 171.906 12.6727C172.379 13.1254 172.616 13.7221 172.616 14.4628V17.6727C172.616 19.7098 171.597 20.7283 169.56 20.7283H168.295ZM180.566 34.4321C178.632 34.4321 177.027 34 175.751 33.1358C174.476 32.2716 173.694 30.965 173.406 29.216L176.369 28.5061C176.533 29.3498 176.811 30.0185 177.202 30.5123C177.593 31.0061 178.077 31.3559 178.653 31.5617C179.249 31.7675 179.887 31.8704 180.566 31.8704C181.575 31.8704 182.346 31.6749 182.881 31.2839C183.437 30.893 183.714 30.3889 183.714 29.7716C183.714 29.1543 183.457 28.7016 182.943 28.4135C182.428 28.1255 181.667 27.8888 180.659 27.7037L179.609 27.5185C178.581 27.3333 177.644 27.0658 176.801 26.716C175.957 26.3662 175.288 25.8827 174.795 25.2654C174.301 24.6481 174.054 23.8559 174.054 22.8888C174.054 21.4485 174.589 20.3373 175.659 19.5554C176.729 18.753 178.149 18.3517 179.918 18.3517C181.626 18.3517 183.025 18.7427 184.116 19.5246C185.227 20.2859 185.947 21.325 186.276 22.6419L183.313 23.4752C183.128 22.5493 182.737 21.9011 182.14 21.5308C181.544 21.1398 180.803 20.9443 179.918 20.9443C179.054 20.9443 178.375 21.109 177.881 21.4382C177.387 21.7468 177.14 22.1892 177.14 22.7653C177.14 23.3826 177.377 23.8353 177.85 24.1234C178.344 24.4114 179.002 24.6275 179.826 24.7715L180.906 24.9567C181.996 25.1419 182.994 25.3991 183.9 25.7283C184.805 26.0576 185.515 26.5308 186.029 27.1481C186.564 27.7654 186.832 28.5884 186.832 29.6173C186.832 31.1399 186.266 32.323 185.134 33.1667C184.003 34.0103 182.48 34.4321 180.566 34.4321ZM202.89 34.4321C201.408 34.4321 200.266 34.1646 199.464 33.6296C198.682 33.0946 198.095 32.4979 197.704 31.8395H197.211V34H194.093V12.3949H197.272V20.8517H197.766C198.013 20.4402 198.342 20.0493 198.754 19.6789C199.165 19.288 199.711 18.969 200.39 18.7221C201.069 18.4752 201.902 18.3517 202.89 18.3517C204.165 18.3517 205.338 18.6604 206.408 19.2777C207.478 19.895 208.332 20.79 208.97 21.9629C209.608 23.1357 209.927 24.5349 209.927 26.1604V26.6234C209.927 28.2695 209.598 29.679 208.939 30.8518C208.301 32.0041 207.447 32.8889 206.377 33.5062C205.328 34.1235 204.165 34.4321 202.89 34.4321ZM201.964 31.6543C203.342 31.6543 204.474 31.2119 205.359 30.3271C206.264 29.4424 206.717 28.1769 206.717 26.5308V26.253C206.717 24.6275 206.275 23.3723 205.39 22.4876C204.505 21.6028 203.363 21.1604 201.964 21.1604C200.606 21.1604 199.474 21.6028 198.569 22.4876C197.684 23.3723 197.242 24.6275 197.242 26.253V26.5308C197.242 28.1769 197.684 29.4424 198.569 30.3271C199.474 31.2119 200.606 31.6543 201.964 31.6543ZM211.705 34V12.3949H214.884V34H211.705ZM224.571 34.4321C223.049 34.4321 221.691 34.1235 220.497 33.5062C219.325 32.8683 218.399 31.9629 217.72 30.7901C217.041 29.6172 216.701 28.2284 216.701 26.6234V26.1604C216.701 24.5555 217.041 23.1769 217.72 22.0246C218.399 20.8518 219.325 19.9464 220.497 19.3085C221.691 18.6707 223.049 18.3517 224.571 18.3517C226.094 18.3517 227.452 18.6707 228.646 19.3085C229.839 19.9464 230.775 20.8518 231.454 22.0246C232.133 23.1769 232.473 24.5555 232.473 26.1604V26.6234C232.473 28.2284 232.133 29.6172 231.454 30.7901C230.775 31.9629 229.839 32.8683 228.646 33.5062C227.452 34.1235 226.094 34.4321 224.571 34.4321ZM224.571 31.5926C225.971 31.5926 227.102 31.1502 227.967 30.2654C228.851 29.36 229.294 28.1152 229.294 26.5308V26.253C229.294 24.6687 228.862 23.4341 227.997 22.5493C227.133 21.6439 225.991 21.1913 224.571 21.1913C223.193 21.1913 222.061 21.6439 221.176 22.5493C220.312 23.4341 219.88 24.6687 219.88 26.253V26.5308C219.88 28.1152 220.312 29.36 221.176 30.2654C222.061 31.1502 223.193 31.5926 224.571 31.5926ZM233.529 26.4691V26.0061C233.529 24.4012 233.848 23.0328 234.486 21.9011C235.145 20.7694 236.009 19.895 237.079 19.2777C238.149 18.6604 239.322 18.3517 240.597 18.3517C242.079 18.3517 243.211 18.6295 243.992 19.1851C244.795 19.7406 245.381 20.3373 245.752 20.9752H246.246V18.7838H249.332V37.1173C249.332 38.0432 249.054 38.784 248.499 39.3395C247.964 39.8951 247.223 40.1729 246.276 40.1729H236.029V37.3951H245.289C245.885 37.3951 246.184 37.0864 246.184 36.4692V31.6234H245.69C245.464 31.9938 245.145 32.3745 244.733 32.7654C244.322 33.1564 243.776 33.4753 243.097 33.7222C242.439 33.9691 241.606 34.0926 240.597 34.0926C239.322 34.0926 238.139 33.7942 237.048 33.1975C235.978 32.5802 235.124 31.7057 234.486 30.574C233.848 29.4218 233.529 28.0535 233.529 26.4691ZM241.462 31.3148C242.84 31.3148 243.972 30.8827 244.857 30.0185C245.762 29.1337 246.215 27.9197 246.215 26.3765V26.0987C246.215 24.5143 245.772 23.3003 244.888 22.4567C244.003 21.5925 242.861 21.1604 241.462 21.1604C240.104 21.1604 238.972 21.5925 238.066 22.4567C237.182 23.3003 236.739 24.5143 236.739 26.0987V26.3765C236.739 27.9197 237.182 29.1337 238.066 30.0185C238.972 30.8827 240.104 31.3148 241.462 31.3148Z" fill="url(#paint1_linear_36_48)"/>
<defs>
<linearGradient id="paint0_linear_36_48" x1="0" y1="23" x2="40" y2="23" gradientUnits="userSpaceOnUse">
<stop stop-color="#DC2EE7"/>
<stop offset="0.995" stop-color="#E90464"/>
</linearGradient>
<linearGradient id="paint1_linear_36_48" x1="58.2619" y1="40.4565" x2="266.794" y2="78.0836" gradientUnits="userSpaceOnUse">
<stop offset="0.133225" stop-color="#E90464"/>
<stop offset="0.5" stop-color="#F736E3"/>
<stop offset="0.84" stop-color="#8514F5"/>
</linearGradient>
</defs>
</svg>
