<svg width="768" height="768" viewBox="0 0 768 768" fill="none" xmlns="http://www.w3.org/2000/svg">
<rect width="768" height="768" rx="192" fill="#3178C6"/>
<path d="M604.052 153.5C611.886 153.5 618.152 154.597 622.852 156.79C627.866 158.67 631.626 161.49 634.132 165.25C636.952 168.697 638.832 172.927 639.772 177.94C640.712 182.64 641.182 187.653 641.182 192.98V286.04C641.182 322.073 638.362 353.093 632.722 379.1C627.082 405.107 617.056 426.413 602.642 443.02C588.542 459.627 569.116 472.003 544.362 480.15C519.609 487.983 488.276 491.9 450.362 491.9C442.529 491.9 436.106 490.96 431.092 489.08C426.392 486.887 422.632 484.067 419.812 480.62C417.306 476.86 415.582 472.63 414.642 467.93C413.702 462.917 413.232 457.747 413.232 452.42V359.36C413.232 323.327 416.052 292.307 421.692 266.3C427.332 240.293 437.202 218.987 451.302 202.38C465.716 185.773 485.142 173.553 509.582 165.72C534.336 157.573 565.826 153.5 604.052 153.5ZM598.882 191.1C567.549 191.1 542.482 194.233 523.682 200.5C504.882 206.767 490.312 216.637 479.972 230.11C469.946 243.583 463.366 260.973 460.232 282.28C457.099 303.587 455.532 329.28 455.532 359.36V454.3C486.866 454.3 511.932 451.167 530.732 444.9C549.532 438.633 563.946 428.763 573.972 415.29C584.312 401.817 591.049 384.427 594.182 363.12C597.316 341.813 598.882 316.12 598.882 286.04V191.1Z" fill="#EDEDED"/>
<path d="M235.51 275.7H174.41C174.41 261.913 177.857 252.2 184.75 246.56C191.643 240.92 199.163 238.1 207.31 238.1H237.86C240.367 217.107 244.597 199.717 250.55 185.93C256.503 171.83 264.493 160.707 274.52 152.56C284.86 144.1 297.08 138.303 311.18 135.17C325.593 131.723 342.2 130 361 130C371.027 130 377.92 132.507 381.68 137.52C385.44 142.533 387.32 150.837 387.32 162.43V167.6H361C349.093 167.6 338.44 168.383 329.04 169.95C319.953 171.203 312.12 174.337 305.54 179.35C298.96 184.05 293.477 191.1 289.09 200.5C285.017 209.9 282.04 222.433 280.16 238.1H456.88C456.88 251.887 453.433 261.6 446.54 267.24C439.647 272.88 432.127 275.7 423.98 275.7H277.81V477.8C277.81 509.76 275.46 535.923 270.76 556.29C266.06 576.97 258.54 593.263 248.2 605.17C238.173 617.39 225.17 625.85 209.19 630.55C193.523 635.25 174.567 637.6 152.32 637.6C142.293 637.6 135.4 635.093 131.64 630.08C127.88 625.067 126 616.763 126 605.17V600H152.32C167.047 600 179.58 598.747 189.92 596.24C200.573 594.047 209.19 588.72 215.77 580.26C222.663 572.113 227.677 559.893 230.81 543.6C233.943 527.62 235.51 505.687 235.51 477.8V275.7Z" fill="#EDEDED"/>
</svg>
